<?xml version="1.0" encoding="utf-8"?>
<!-- Generator: Adobe Illustrator 19.2.0, SVG Export Plug-In . SVG Version: 6.00 Build 0)  -->
<svg version="1.1" id="Layer_1" xmlns="http://www.w3.org/2000/svg" xmlns:xlink="http://www.w3.org/1999/xlink" x="0px" y="0px"
	 viewBox="0 0 379.3 517.9" style="enable-background:new 0 0 379.3 517.9;" xml:space="preserve">
<style type="text/css">
	.st0{fill:#FFFFFF;}
	.st1{fill:none;}
	.st2{fill:#3F3F3F;}
	.st3{font-family:'HelveticaNeue-Bold';}
	.st4{font-size:48px;}
	.st5{font-size:40px;}
	.st6{font-size:28px;}
	.st7{font-family:'HelveticaNeue';}
	.st8{font-size:19px;}
	.st9{fill:none;stroke:#6D6D6D;stroke-width:6;stroke-miterlimit:10;}
</style>
<g>
	<rect class="st0" width="379.3" height="517.9"/>
	<rect x="44" y="52.3" class="st1" width="286.7" height="191.6"/>
	<text transform="matrix(1 0 0 1 43.9978 86.5959)" class="st2 st3 st4">PROJECT Y:</text>
	<text transform="matrix(1 0 0 1 43.9978 135.5959)" class="st2 st3 st5">A Very Brief </text>
	<text transform="matrix(1 0 0 1 43.9978 184.5959)" class="st2 st3 st5">Brief</text>
	<rect x="47.3" y="279.1" class="st1" width="166.3" height="23.6"/>
	<text transform="matrix(1 0 0 1 47.3306 299.0532)" class="st2 st3 st6">Objective</text>
	<rect x="48" y="310.7" class="st1" width="267.7" height="20.4"/>
	<text transform="matrix(1 0 0 1 47.9978 324.2622)" class="st2 st7 st8">Make a website using Javascript. </text>
	<rect x="47.3" y="352.5" class="st1" width="259.3" height="23.6"/>
	<text transform="matrix(1 0 0 1 47.3306 372.5348)" class="st2 st3 st6">Due Date</text>
	<rect x="48" y="384.2" class="st1" width="267.7" height="39.3"/>
	<text transform="matrix(1 0 0 1 47.9978 397.7438)" class="st2 st7 st8">All work must be submitted on </text>
	<text transform="matrix(1 0 0 1 47.9978 420.7438)" class="st2 st7 st8">February 29th 2017.</text>
	<line class="st9" x1="43.4" y1="232" x2="341.4" y2="232"/>
</g>
</svg>
