<?xml version="1.0" encoding="utf-8"?>
<!-- Generator: Adobe Illustrator 19.1.0, SVG Export Plug-In . SVG Version: 6.00 Build 0)  -->
<svg version="1.1" id="Layer_1" xmlns="http://www.w3.org/2000/svg" xmlns:xlink="http://www.w3.org/1999/xlink" x="0px" y="0px"
	 viewBox="0 0 191.5 164.1" style="enable-background:new 0 0 191.5 164.1;" xml:space="preserve">
<style type="text/css">
	.st0{fill:#E8C8AC;}
	.st1{fill:#FFFFFF;}
	.st2{fill:#3F3F3F;}
	.st3{fill:none;stroke:#6D6D6D;stroke-width:6;stroke-miterlimit:10;}
	.st4{fill:#211F1D;stroke:#FFFFFF;stroke-width:15;stroke-miterlimit:10;}
	.st5{fill:#473B33;}
	.st6{fill:#332A23;}
</style>
<g>
	<circle class="st4" cx="82" cy="82" r="74.5"/>
	<g>
		<circle class="st5" cx="82.1" cy="82" r="64.8"/>
		<path class="st6" d="M113.5,138.8c-30.6,17.1-70.8,6.4-88.3-24.9s-5.7-71.1,24.9-88.3c0,0-15,27.3-0.8,50.3
			c21.6,34.8,47.8-2.9,64.6,27.1C127.2,126.8,113.5,138.8,113.5,138.8z"/>
	</g>
	<path class="st1" d="M159.1,57.2l27.6-15.5c4.5-2.5,6.1-8.2,3.6-12.7l-5.6-10.1c-2.5-4.5-8.2-6.1-12.7-3.6l-27.6,15.5
		c-4.5,2.5-6.1,8.2-3.6,12.7l5.6,10.1C149,58.1,154.6,59.7,159.1,57.2z"/>
</g>
</svg>
