<svg id="Layer_1" data-name="Layer 1" xmlns="http://www.w3.org/2000/svg" viewBox="0 0 400.8 800"><defs><style>.cls-1{fill:#bcbcbc;}.cls-2{fill:#eaeaea;}.cls-3,.cls-6,.cls-7{fill:#fff;}.cls-3,.cls-6{stroke:#adadad;stroke-miterlimit:10;}.cls-3{stroke-width:1.96px;}.cls-4{fill:#0091a3;}.cls-5{fill:#424242;}.cls-6{stroke-width:2.61px;}.cls-7{font-size:90.45px;font-family:Helvetica;font-weight:700;}</style></defs><title>iphoneLit</title><path class="cls-1" d="M356.45,10.2h54.4a5.12,5.12,0,0,0,5.1-5.1h0a5.12,5.12,0,0,0-5.1-5.1h-54.4a5.12,5.12,0,0,0-5.1,5.1h0A5.12,5.12,0,0,0,356.45,10.2Z" transform="translate(-73.45)"/><path class="cls-1" d="M83.65,144.6V109.2a5.12,5.12,0,0,0-5.1-5.1h0a5.12,5.12,0,0,0-5.1,5.1v35.4a5.12,5.12,0,0,0,5.1,5.1h0A5.12,5.12,0,0,0,83.65,144.6Z" transform="translate(-73.45)"/><path class="cls-1" d="M83.65,204.5V180.7a5.12,5.12,0,0,0-5.1-5.1h0a5.12,5.12,0,0,0-5.1,5.1v23.8a5.12,5.12,0,0,0,5.1,5.1h0A5.12,5.12,0,0,0,83.65,204.5Z" transform="translate(-73.45)"/><path class="cls-1" d="M83.65,253.1V229.3a5.12,5.12,0,0,0-5.1-5.1h0a5.12,5.12,0,0,0-5.1,5.1v23.8a5.12,5.12,0,0,0,5.1,5.1h0a5.06,5.06,0,0,0,5.1-5S83.65,253.13,83.65,253.1Z" transform="translate(-73.45)"/><path class="cls-2" d="M134.75,800h283.3a56.25,56.25,0,0,0,56.2-56.2V61.3a56.25,56.25,0,0,0-56.2-56.2H134.75a56.25,56.25,0,0,0-56.2,56.2V743.9A56.16,56.16,0,0,0,134.75,800Z" transform="translate(-73.45)"/><path class="cls-3" d="M136.95,795.7h278.9a53.39,53.39,0,0,0,53.4-53.38V62.8A53.39,53.39,0,0,0,415.87,9.4H136.95a53.48,53.48,0,0,0-53.5,53.4V742.3A53.48,53.48,0,0,0,136.95,795.7Z" transform="translate(-73.45)"/><rect class="cls-4" x="32.7" y="112.2" width="340.3" height="578.2"/><path class="cls-5" d="M242.55,69.7h67.6a5.59,5.59,0,0,1,5.6,5.58s0,0,0,0h0a5.59,5.59,0,0,1-5.58,5.6H242.55a5.59,5.59,0,0,1-5.6-5.58s0,0,0,0h0a5.59,5.59,0,0,1,5.58-5.6h0Z" transform="translate(-73.45)"/><circle class="cls-5" cx="202.9" cy="44.3" r="8.8"/><circle class="cls-6" cx="202.9" cy="743.4" r="34"/><path class="cls-6" d="M271.45,756.7h9.9a8.45,8.45,0,0,0,8.4-8.4v-9.9a8.45,8.45,0,0,0-8.4-8.4h-9.9a8.45,8.45,0,0,0-8.4,8.4v9.9a8.32,8.32,0,0,0,8.24,8.4h0.16Z" transform="translate(-73.45)"/><text class="cls-7" transform="translate(65.65 372.05)">BANG<tspan x="0" y="108.54">BANG</tspan></text></svg>