<?xml version="1.0" encoding="utf-8"?>
<!-- Generator: Adobe Illustrator 19.2.0, SVG Export Plug-In . SVG Version: 6.00 Build 0)  -->
<svg version="1.1" id="Layer_1" xmlns="http://www.w3.org/2000/svg" xmlns:xlink="http://www.w3.org/1999/xlink" x="0px" y="0px"
	 viewBox="0 0 400.8 800" style="enable-background:new 0 0 400.8 800;" xml:space="preserve">
<style type="text/css">
	.st0{fill:#BCBCBC;}
	.st1{fill:#EAEAEA;}
	.st2{fill:#FFFFFF;stroke:#ADADAD;stroke-width:1.96;stroke-miterlimit:10;}
	.st3{fill:#A32900;}
	.st4{fill:#424242;}
	.st5{fill:#FFFFFF;stroke:#ADADAD;stroke-width:2.61;stroke-miterlimit:10;}
	.st6{fill:#FFFFFF;}
	.st7{font-family:'Helvetica-Bold';}
	.st8{font-size:90.45px;}
</style>
<title>iphoneLit</title>
<path class="st0" d="M283,10.2h54.4c2.8,0,5.1-2.3,5.1-5.1l0,0c0-2.8-2.3-5.1-5.1-5.1H283c-2.8,0-5.1,2.3-5.1,5.1l0,0
	C277.9,7.9,280.2,10.2,283,10.2z"/>
<path class="st0" d="M10.2,144.6v-35.4c0-2.8-2.3-5.1-5.1-5.1l0,0c-2.8,0-5.1,2.3-5.1,5.1v35.4c0,2.8,2.3,5.1,5.1,5.1l0,0
	C7.9,149.7,10.2,147.4,10.2,144.6z"/>
<path class="st0" d="M10.2,204.5v-23.8c0-2.8-2.3-5.1-5.1-5.1l0,0c-2.8,0-5.1,2.3-5.1,5.1v23.8c0,2.8,2.3,5.1,5.1,5.1l0,0
	C7.9,209.6,10.2,207.3,10.2,204.5z"/>
<path class="st0" d="M10.2,253.1v-23.8c0-2.8-2.3-5.1-5.1-5.1l0,0c-2.8,0-5.1,2.3-5.1,5.1v23.8c0,2.8,2.3,5.1,5.1,5.1l0,0
	c2.8,0,5.1-2.2,5.1-5C10.2,253.2,10.2,253.1,10.2,253.1z"/>
<path class="st1" d="M61.3,800h283.3c31,0,56.2-25.2,56.2-56.2V61.3c0-31-25.2-56.2-56.2-56.2H61.3c-31,0-56.2,25.2-56.2,56.2v682.6
	C5.1,774.9,30.3,800,61.3,800z"/>
<path class="st2" d="M63.5,795.7h278.9c29.5,0,53.4-23.9,53.4-53.4l0,0V62.8c0-29.5-23.9-53.4-53.4-53.4H63.5
	C34,9.4,10,33.3,10,62.8v679.5C10,771.8,34,795.7,63.5,795.7z"/>
<rect x="32.7" y="112.2" class="st3" width="340.3" height="578.2"/>
<path class="st4" d="M169.1,69.7h67.6c3.1,0,5.6,2.5,5.6,5.6c0,0,0,0,0,0l0,0l0,0c0,3.1-2.5,5.6-5.6,5.6l0,0h-67.6
	c-3.1,0-5.6-2.5-5.6-5.6c0,0,0,0,0,0l0,0l0,0C163.5,72.2,166,69.7,169.1,69.7L169.1,69.7L169.1,69.7L169.1,69.7z"/>
<circle class="st4" cx="202.9" cy="44.3" r="8.8"/>
<circle class="st5" cx="202.9" cy="743.4" r="34"/>
<path class="st5" d="M198,756.7h9.9c4.6,0,8.4-3.8,8.4-8.4v-9.9c0-4.6-3.8-8.4-8.4-8.4H198c-4.6,0-8.4,3.8-8.4,8.4v9.9
	c0,4.6,3.6,8.4,8.2,8.4c0,0,0,0,0,0H198z"/>
<text transform="matrix(1 0 0 1 65.65 372.05)" class="st6 st7 st8">BANG</text>
<text transform="matrix(1 0 0 1 65.65 480.59)" class="st6 st7 st8">BANG</text>
</svg>
